<?xml version="1.0" encoding="UTF-8" standalone="no"?>
<!DOCTYPE svg PUBLIC "-//W3C//DTD SVG 1.1//EN"
 "http://www.w3.org/Graphics/SVG/1.1/DTD/svg11.dtd">
<!-- Generated by graphviz version 12.2.1 (0)
 -->
<!-- Title: org_test Pages: 1 -->
<svg width="758pt" height="468pt"
 viewBox="0.00 0.00 757.97 468.00" xmlns="http://www.w3.org/2000/svg" xmlns:xlink="http://www.w3.org/1999/xlink">
<g id="graph0" class="graph" transform="scale(1 1) rotate(0) translate(36 432)">
<title>org_test</title>
<polygon fill="white" stroke="none" points="-36,36 -36,-432 721.97,-432 721.97,36 -36,36"/>
<!-- org&#45;test&#45;run&#45;current&#45;buffer -->
<g id="node1" class="node">
<title>org&#45;test&#45;run&#45;current&#45;buffer</title>
<path fill="#e8f5e9" stroke="black" d="M154.35,-396C154.35,-396 57.35,-396 57.35,-396 51.35,-396 45.35,-390 45.35,-384 45.35,-384 45.35,-372 45.35,-372 45.35,-366 51.35,-360 57.35,-360 57.35,-360 154.35,-360 154.35,-360 160.35,-360 166.35,-366 166.35,-372 166.35,-372 166.35,-384 166.35,-384 166.35,-390 160.35,-396 154.35,-396"/>
<text text-anchor="middle" x="105.85" y="-374.7" font-family="Arial" font-size="9.00">org&#45;test&#45;run&#45;current&#45;buffer</text>
</g>
<!-- org&#45;test&#45;run -->
<g id="node2" class="node">
<title>org&#45;test&#45;run</title>
<path fill="#e8f5e9" stroke="black" d="M125.47,-324C125.47,-324 86.22,-324 86.22,-324 80.22,-324 74.22,-318 74.22,-312 74.22,-312 74.22,-300 74.22,-300 74.22,-294 80.22,-288 86.22,-288 86.22,-288 125.47,-288 125.47,-288 131.47,-288 137.47,-294 137.47,-300 137.47,-300 137.47,-312 137.47,-312 137.47,-318 131.47,-324 125.47,-324"/>
<text text-anchor="middle" x="105.85" y="-302.7" font-family="Arial" font-size="9.00">org&#45;test&#45;run</text>
</g>
<!-- org&#45;test&#45;run&#45;current&#45;buffer&#45;&gt;org&#45;test&#45;run -->
<g id="edge17" class="edge">
<title>org&#45;test&#45;run&#45;current&#45;buffer&#45;&gt;org&#45;test&#45;run</title>
<path fill="none" stroke="black" d="M105.85,-359.7C105.85,-352.41 105.85,-343.73 105.85,-335.54"/>
<polygon fill="black" stroke="black" points="109.35,-335.62 105.85,-325.62 102.35,-335.62 109.35,-335.62"/>
</g>
<!-- org&#45;test&#45;&#45;get&#45;results&#45;buffer -->
<g id="node3" class="node">
<title>org&#45;test&#45;&#45;get&#45;results&#45;buffer</title>
<path fill="#fff3e0" stroke="black" d="M130.72,-36C130.72,-36 32.97,-36 32.97,-36 26.97,-36 20.97,-30 20.97,-24 20.97,-24 20.97,-12 20.97,-12 20.97,-6 26.97,0 32.97,0 32.97,0 130.72,0 130.72,0 136.72,0 142.72,-6 142.72,-12 142.72,-12 142.72,-24 142.72,-24 142.72,-30 136.72,-36 130.72,-36"/>
<text text-anchor="middle" x="81.85" y="-14.7" font-family="Arial" font-size="9.00">org&#45;test&#45;&#45;get&#45;results&#45;buffer</text>
</g>
<!-- org&#45;test&#45;run&#45;&gt;org&#45;test&#45;&#45;get&#45;results&#45;buffer -->
<g id="edge14" class="edge">
<title>org&#45;test&#45;run&#45;&gt;org&#45;test&#45;&#45;get&#45;results&#45;buffer</title>
<path fill="none" stroke="black" d="M74.05,-289.53C58.99,-280.6 42.09,-267.96 31.85,-252 -3.37,-197.13 10.1,-172.9 3.85,-108 2.31,-92.07 -3.64,-86.14 3.85,-72 10.19,-60.02 20.59,-50.24 31.76,-42.5"/>
<polygon fill="black" stroke="black" points="33.41,-45.6 39.98,-37.28 29.66,-39.69 33.41,-45.6"/>
</g>
<!-- org&#45;test&#45;&#45;display&#45;results&#45;buffer -->
<g id="node4" class="node">
<title>org&#45;test&#45;&#45;display&#45;results&#45;buffer</title>
<path fill="#fff3e0" stroke="black" d="M138.97,-108C138.97,-108 24.72,-108 24.72,-108 18.72,-108 12.72,-102 12.72,-96 12.72,-96 12.72,-84 12.72,-84 12.72,-78 18.72,-72 24.72,-72 24.72,-72 138.97,-72 138.97,-72 144.97,-72 150.97,-78 150.97,-84 150.97,-84 150.97,-96 150.97,-96 150.97,-102 144.97,-108 138.97,-108"/>
<text text-anchor="middle" x="81.85" y="-86.7" font-family="Arial" font-size="9.00">org&#45;test&#45;&#45;display&#45;results&#45;buffer</text>
</g>
<!-- org&#45;test&#45;run&#45;&gt;org&#45;test&#45;&#45;display&#45;results&#45;buffer -->
<g id="edge13" class="edge">
<title>org&#45;test&#45;run&#45;&gt;org&#45;test&#45;&#45;display&#45;results&#45;buffer</title>
<path fill="none" stroke="black" d="M77.74,-287.64C65.86,-278.63 53.29,-266.46 46.85,-252 27.3,-208.16 33.04,-189.97 46.85,-144 49.64,-134.69 54.66,-125.51 60.04,-117.47"/>
<polygon fill="black" stroke="black" points="62.76,-119.68 65.78,-109.52 57.09,-115.59 62.76,-119.68"/>
</g>
<!-- org&#45;test&#45;&#45;output -->
<g id="node5" class="node">
<title>org&#45;test&#45;&#45;output</title>
<path fill="#fff3e0" stroke="black" d="M291.97,-108C291.97,-108 237.72,-108 237.72,-108 231.72,-108 225.72,-102 225.72,-96 225.72,-96 225.72,-84 225.72,-84 225.72,-78 231.72,-72 237.72,-72 237.72,-72 291.97,-72 291.97,-72 297.97,-72 303.97,-78 303.97,-84 303.97,-84 303.97,-96 303.97,-96 303.97,-102 297.97,-108 291.97,-108"/>
<text text-anchor="middle" x="264.85" y="-86.7" font-family="Arial" font-size="9.00">org&#45;test&#45;&#45;output</text>
</g>
<!-- org&#45;test&#45;run&#45;&gt;org&#45;test&#45;&#45;output -->
<g id="edge11" class="edge">
<title>org&#45;test&#45;run&#45;&gt;org&#45;test&#45;&#45;output</title>
<path fill="none" stroke="black" d="M95.51,-287.73C77.95,-255.91 47.21,-187.3 79.85,-144 96.08,-122.47 165.4,-107.02 214.4,-98.54"/>
<polygon fill="black" stroke="black" points="214.67,-102.04 223.95,-96.94 213.51,-95.14 214.67,-102.04"/>
</g>
<!-- org&#45;test&#45;&#45;normalize&#45;targets -->
<g id="node6" class="node">
<title>org&#45;test&#45;&#45;normalize&#45;targets</title>
<path fill="#fff3e0" stroke="black" d="M200.85,-252C200.85,-252 100.85,-252 100.85,-252 94.85,-252 88.85,-246 88.85,-240 88.85,-240 88.85,-228 88.85,-228 88.85,-222 94.85,-216 100.85,-216 100.85,-216 200.85,-216 200.85,-216 206.85,-216 212.85,-222 212.85,-228 212.85,-228 212.85,-240 212.85,-240 212.85,-246 206.85,-252 200.85,-252"/>
<text text-anchor="middle" x="150.85" y="-230.7" font-family="Arial" font-size="9.00">org&#45;test&#45;&#45;normalize&#45;targets</text>
</g>
<!-- org&#45;test&#45;run&#45;&gt;org&#45;test&#45;&#45;normalize&#45;targets -->
<g id="edge16" class="edge">
<title>org&#45;test&#45;run&#45;&gt;org&#45;test&#45;&#45;normalize&#45;targets</title>
<path fill="none" stroke="black" d="M116.97,-287.7C122.04,-279.81 128.15,-270.3 133.78,-261.55"/>
<polygon fill="black" stroke="black" points="136.57,-263.68 139.03,-253.38 130.68,-259.9 136.57,-263.68"/>
</g>
<!-- org&#45;test&#45;&#45;run&#45;buffer&#45;sync -->
<g id="node11" class="node">
<title>org&#45;test&#45;&#45;run&#45;buffer&#45;sync</title>
<path fill="#fff3e0" stroke="black" d="M385.97,-252C385.97,-252 295.72,-252 295.72,-252 289.72,-252 283.72,-246 283.72,-240 283.72,-240 283.72,-228 283.72,-228 283.72,-222 289.72,-216 295.72,-216 295.72,-216 385.97,-216 385.97,-216 391.97,-216 397.97,-222 397.97,-228 397.97,-228 397.97,-240 397.97,-240 397.97,-246 391.97,-252 385.97,-252"/>
<text text-anchor="middle" x="340.85" y="-230.7" font-family="Arial" font-size="9.00">org&#45;test&#45;&#45;run&#45;buffer&#45;sync</text>
</g>
<!-- org&#45;test&#45;run&#45;&gt;org&#45;test&#45;&#45;run&#45;buffer&#45;sync -->
<g id="edge12" class="edge">
<title>org&#45;test&#45;run&#45;&gt;org&#45;test&#45;&#45;run&#45;buffer&#45;sync</title>
<path fill="none" stroke="black" d="M137.54,-295.56C172.03,-285.29 228.21,-268.55 272.78,-255.27"/>
<polygon fill="black" stroke="black" points="273.52,-258.71 282.1,-252.5 271.52,-252 273.52,-258.71"/>
</g>
<!-- org&#45;test&#45;&#45;find&#45;tests&#45;and&#45;expectations -->
<g id="node15" class="node">
<title>org&#45;test&#45;&#45;find&#45;tests&#45;and&#45;expectations</title>
<path fill="#fff3e0" stroke="black" d="M567.35,-252C567.35,-252 428.35,-252 428.35,-252 422.35,-252 416.35,-246 416.35,-240 416.35,-240 416.35,-228 416.35,-228 416.35,-222 422.35,-216 428.35,-216 428.35,-216 567.35,-216 567.35,-216 573.35,-216 579.35,-222 579.35,-228 579.35,-228 579.35,-240 579.35,-240 579.35,-246 573.35,-252 567.35,-252"/>
<text text-anchor="middle" x="497.85" y="-230.7" font-family="Arial" font-size="9.00">org&#45;test&#45;&#45;find&#45;tests&#45;and&#45;expectations</text>
</g>
<!-- org&#45;test&#45;run&#45;&gt;org&#45;test&#45;&#45;find&#45;tests&#45;and&#45;expectations -->
<g id="edge15" class="edge">
<title>org&#45;test&#45;run&#45;&gt;org&#45;test&#45;&#45;find&#45;tests&#45;and&#45;expectations</title>
<path fill="none" stroke="black" d="M137.94,-299.46C191.05,-290.27 300.88,-271.17 404.68,-252.38"/>
<polygon fill="black" stroke="black" points="405.3,-255.83 414.51,-250.6 404.05,-248.94 405.3,-255.83"/>
</g>
<!-- org&#45;test&#45;&#45;display&#45;results&#45;buffer&#45;&gt;org&#45;test&#45;&#45;get&#45;results&#45;buffer -->
<g id="edge19" class="edge">
<title>org&#45;test&#45;&#45;display&#45;results&#45;buffer&#45;&gt;org&#45;test&#45;&#45;get&#45;results&#45;buffer</title>
<path fill="none" stroke="black" d="M81.85,-71.7C81.85,-64.41 81.85,-55.73 81.85,-47.54"/>
<polygon fill="black" stroke="black" points="85.35,-47.62 81.85,-37.62 78.35,-47.62 85.35,-47.62"/>
</g>
<!-- org&#45;test&#45;&#45;output&#45;&gt;org&#45;test&#45;&#45;get&#45;results&#45;buffer -->
<g id="edge18" class="edge">
<title>org&#45;test&#45;&#45;output&#45;&gt;org&#45;test&#45;&#45;get&#45;results&#45;buffer</title>
<path fill="none" stroke="black" d="M225.59,-73.98C200.07,-64.22 166.4,-51.34 138.07,-40.51"/>
<polygon fill="black" stroke="black" points="139.5,-37.31 128.91,-37 137,-43.84 139.5,-37.31"/>
</g>
<!-- org&#45;test&#45;&#45;file&#45;to&#45;buffer -->
<g id="node7" class="node">
<title>org&#45;test&#45;&#45;file&#45;to&#45;buffer</title>
<path fill="#fff3e0" stroke="black" d="M178.6,-180C178.6,-180 101.1,-180 101.1,-180 95.1,-180 89.1,-174 89.1,-168 89.1,-168 89.1,-156 89.1,-156 89.1,-150 95.1,-144 101.1,-144 101.1,-144 178.6,-144 178.6,-144 184.6,-144 190.6,-150 190.6,-156 190.6,-156 190.6,-168 190.6,-168 190.6,-174 184.6,-180 178.6,-180"/>
<text text-anchor="middle" x="139.85" y="-158.7" font-family="Arial" font-size="9.00">org&#45;test&#45;&#45;file&#45;to&#45;buffer</text>
</g>
<!-- org&#45;test&#45;&#45;normalize&#45;targets&#45;&gt;org&#45;test&#45;&#45;file&#45;to&#45;buffer -->
<g id="edge9" class="edge">
<title>org&#45;test&#45;&#45;normalize&#45;targets&#45;&gt;org&#45;test&#45;&#45;file&#45;to&#45;buffer</title>
<path fill="none" stroke="black" d="M148.13,-215.7C146.97,-208.32 145.58,-199.52 144.28,-191.25"/>
<polygon fill="black" stroke="black" points="147.78,-190.93 142.77,-181.6 140.86,-192.02 147.78,-190.93"/>
</g>
<!-- org&#45;test&#45;&#45;find&#45;org&#45;files -->
<g id="node8" class="node">
<title>org&#45;test&#45;&#45;find&#45;org&#45;files</title>
<path fill="#fff3e0" stroke="black" d="M300.72,-180C300.72,-180 220.97,-180 220.97,-180 214.97,-180 208.97,-174 208.97,-168 208.97,-168 208.97,-156 208.97,-156 208.97,-150 214.97,-144 220.97,-144 220.97,-144 300.72,-144 300.72,-144 306.72,-144 312.72,-150 312.72,-156 312.72,-156 312.72,-168 312.72,-168 312.72,-174 306.72,-180 300.72,-180"/>
<text text-anchor="middle" x="260.85" y="-158.7" font-family="Arial" font-size="9.00">org&#45;test&#45;&#45;find&#45;org&#45;files</text>
</g>
<!-- org&#45;test&#45;&#45;normalize&#45;targets&#45;&gt;org&#45;test&#45;&#45;find&#45;org&#45;files -->
<g id="edge10" class="edge">
<title>org&#45;test&#45;&#45;normalize&#45;targets&#45;&gt;org&#45;test&#45;&#45;find&#45;org&#45;files</title>
<path fill="none" stroke="black" d="M178.32,-215.52C192.2,-206.68 209.24,-195.84 224.23,-186.3"/>
<polygon fill="black" stroke="black" points="225.89,-189.39 232.44,-181.07 222.13,-183.49 225.89,-189.39"/>
</g>
<!-- org&#45;test&#45;&#45;get&#45;block&#45;result -->
<g id="node9" class="node">
<title>org&#45;test&#45;&#45;get&#45;block&#45;result</title>
<path fill="#fff3e0" stroke="black" d="M600.72,-180C600.72,-180 508.97,-180 508.97,-180 502.97,-180 496.97,-174 496.97,-168 496.97,-168 496.97,-156 496.97,-156 496.97,-150 502.97,-144 508.97,-144 508.97,-144 600.72,-144 600.72,-144 606.72,-144 612.72,-150 612.72,-156 612.72,-156 612.72,-168 612.72,-168 612.72,-174 606.72,-180 600.72,-180"/>
<text text-anchor="middle" x="554.85" y="-158.7" font-family="Arial" font-size="9.00">org&#45;test&#45;&#45;get&#45;block&#45;result</text>
</g>
<!-- org&#45;test&#45;&#45;execute&#45;src&#45;block -->
<g id="node10" class="node">
<title>org&#45;test&#45;&#45;execute&#45;src&#45;block</title>
<path fill="#fff3e0" stroke="black" d="M605.22,-108C605.22,-108 504.47,-108 504.47,-108 498.47,-108 492.47,-102 492.47,-96 492.47,-96 492.47,-84 492.47,-84 492.47,-78 498.47,-72 504.47,-72 504.47,-72 605.22,-72 605.22,-72 611.22,-72 617.22,-78 617.22,-84 617.22,-84 617.22,-96 617.22,-96 617.22,-102 611.22,-108 605.22,-108"/>
<text text-anchor="middle" x="554.85" y="-86.7" font-family="Arial" font-size="9.00">org&#45;test&#45;&#45;execute&#45;src&#45;block</text>
</g>
<!-- org&#45;test&#45;&#45;get&#45;block&#45;result&#45;&gt;org&#45;test&#45;&#45;execute&#45;src&#45;block -->
<g id="edge8" class="edge">
<title>org&#45;test&#45;&#45;get&#45;block&#45;result&#45;&gt;org&#45;test&#45;&#45;execute&#45;src&#45;block</title>
<path fill="none" stroke="black" d="M554.85,-143.7C554.85,-136.41 554.85,-127.73 554.85,-119.54"/>
<polygon fill="black" stroke="black" points="558.35,-119.62 554.85,-109.62 551.35,-119.62 558.35,-119.62"/>
</g>
<!-- org&#45;test&#45;&#45;get&#45;results&#45;block -->
<g id="node12" class="node">
<title>org&#45;test&#45;&#45;get&#45;results&#45;block</title>
<path fill="#fff3e0" stroke="black" d="M673.97,-36C673.97,-36 577.72,-36 577.72,-36 571.72,-36 565.72,-30 565.72,-24 565.72,-24 565.72,-12 565.72,-12 565.72,-6 571.72,0 577.72,0 577.72,0 673.97,0 673.97,0 679.97,0 685.97,-6 685.97,-12 685.97,-12 685.97,-24 685.97,-24 685.97,-30 679.97,-36 673.97,-36"/>
<text text-anchor="middle" x="625.85" y="-14.7" font-family="Arial" font-size="9.00">org&#45;test&#45;&#45;get&#45;results&#45;block</text>
</g>
<!-- org&#45;test&#45;&#45;execute&#45;src&#45;block&#45;&gt;org&#45;test&#45;&#45;get&#45;results&#45;block -->
<g id="edge7" class="edge">
<title>org&#45;test&#45;&#45;execute&#45;src&#45;block&#45;&gt;org&#45;test&#45;&#45;get&#45;results&#45;block</title>
<path fill="none" stroke="black" d="M572.4,-71.7C580.82,-63.39 591.08,-53.28 600.35,-44.14"/>
<polygon fill="black" stroke="black" points="602.76,-46.68 607.42,-37.17 597.84,-41.7 602.76,-46.68"/>
</g>
<!-- org&#45;test&#45;&#45;execute&#45;test&#45;block -->
<g id="node13" class="node">
<title>org&#45;test&#45;&#45;execute&#45;test&#45;block</title>
<path fill="#fff3e0" stroke="black" d="M535.35,-36C535.35,-36 432.35,-36 432.35,-36 426.35,-36 420.35,-30 420.35,-24 420.35,-24 420.35,-12 420.35,-12 420.35,-6 426.35,0 432.35,0 432.35,0 535.35,0 535.35,0 541.35,0 547.35,-6 547.35,-12 547.35,-12 547.35,-24 547.35,-24 547.35,-30 541.35,-36 535.35,-36"/>
<text text-anchor="middle" x="483.85" y="-14.7" font-family="Arial" font-size="9.00">org&#45;test&#45;&#45;execute&#45;test&#45;block</text>
</g>
<!-- org&#45;test&#45;&#45;execute&#45;src&#45;block&#45;&gt;org&#45;test&#45;&#45;execute&#45;test&#45;block -->
<g id="edge6" class="edge">
<title>org&#45;test&#45;&#45;execute&#45;src&#45;block&#45;&gt;org&#45;test&#45;&#45;execute&#45;test&#45;block</title>
<path fill="none" stroke="black" d="M537.29,-71.7C528.87,-63.39 518.61,-53.28 509.35,-44.14"/>
<polygon fill="black" stroke="black" points="511.85,-41.7 502.27,-37.17 506.94,-46.68 511.85,-41.7"/>
</g>
<!-- org&#45;test&#45;&#45;run&#45;buffer&#45;sync&#45;&gt;org&#45;test&#45;&#45;output -->
<g id="edge5" class="edge">
<title>org&#45;test&#45;&#45;run&#45;buffer&#45;sync&#45;&gt;org&#45;test&#45;&#45;output</title>
<path fill="none" stroke="black" d="M340.2,-215.51C338.83,-196.72 334.63,-166.54 321.85,-144 315.83,-133.4 306.98,-123.69 298.04,-115.56"/>
<polygon fill="black" stroke="black" points="300.55,-113.1 290.68,-109.26 296,-118.42 300.55,-113.1"/>
</g>
<!-- org&#45;test&#45;&#45;run&#45;buffer&#45;sync&#45;&gt;org&#45;test&#45;&#45;get&#45;block&#45;result -->
<g id="edge4" class="edge">
<title>org&#45;test&#45;&#45;run&#45;buffer&#45;sync&#45;&gt;org&#45;test&#45;&#45;get&#45;block&#45;result</title>
<path fill="none" stroke="black" d="M394.29,-215.52C423.64,-205.92 460.23,-193.95 491.06,-183.86"/>
<polygon fill="black" stroke="black" points="491.85,-187.29 500.27,-180.85 489.68,-180.63 491.85,-187.29"/>
</g>
<!-- org&#45;test&#45;&#45;process&#45;result -->
<g id="node14" class="node">
<title>org&#45;test&#45;&#45;process&#45;result</title>
<path fill="#fff3e0" stroke="black" d="M467.1,-180C467.1,-180 380.6,-180 380.6,-180 374.6,-180 368.6,-174 368.6,-168 368.6,-168 368.6,-156 368.6,-156 368.6,-150 374.6,-144 380.6,-144 380.6,-144 467.1,-144 467.1,-144 473.1,-144 479.1,-150 479.1,-156 479.1,-156 479.1,-168 479.1,-168 479.1,-174 473.1,-180 467.1,-180"/>
<text text-anchor="middle" x="423.85" y="-158.7" font-family="Arial" font-size="9.00">org&#45;test&#45;&#45;process&#45;result</text>
</g>
<!-- org&#45;test&#45;&#45;run&#45;buffer&#45;sync&#45;&gt;org&#45;test&#45;&#45;process&#45;result -->
<g id="edge3" class="edge">
<title>org&#45;test&#45;&#45;run&#45;buffer&#45;sync&#45;&gt;org&#45;test&#45;&#45;process&#45;result</title>
<path fill="none" stroke="black" d="M361.36,-215.7C371.44,-207.2 383.75,-196.81 394.78,-187.51"/>
<polygon fill="black" stroke="black" points="396.73,-190.45 402.12,-181.32 392.22,-185.09 396.73,-190.45"/>
</g>
<!-- org&#45;test&#45;&#45;process&#45;result&#45;&gt;org&#45;test&#45;&#45;output -->
<g id="edge2" class="edge">
<title>org&#45;test&#45;&#45;process&#45;result&#45;&gt;org&#45;test&#45;&#45;output</title>
<path fill="none" stroke="black" d="M384.13,-143.52C363.09,-134.25 337.04,-122.78 314.65,-112.93"/>
<polygon fill="black" stroke="black" points="316.27,-109.82 305.71,-108.99 313.45,-116.22 316.27,-109.82"/>
</g>
<!-- org&#45;test&#45;&#45;compare -->
<g id="node16" class="node">
<title>org&#45;test&#45;&#45;compare</title>
<path fill="#fff3e0" stroke="black" d="M456.22,-108C456.22,-108 391.47,-108 391.47,-108 385.47,-108 379.47,-102 379.47,-96 379.47,-96 379.47,-84 379.47,-84 379.47,-78 385.47,-72 391.47,-72 391.47,-72 456.22,-72 456.22,-72 462.22,-72 468.22,-78 468.22,-84 468.22,-84 468.22,-96 468.22,-96 468.22,-102 462.22,-108 456.22,-108"/>
<text text-anchor="middle" x="423.85" y="-86.7" font-family="Arial" font-size="9.00">org&#45;test&#45;&#45;compare</text>
</g>
<!-- org&#45;test&#45;&#45;process&#45;result&#45;&gt;org&#45;test&#45;&#45;compare -->
<g id="edge1" class="edge">
<title>org&#45;test&#45;&#45;process&#45;result&#45;&gt;org&#45;test&#45;&#45;compare</title>
<path fill="none" stroke="black" d="M423.85,-143.7C423.85,-136.41 423.85,-127.73 423.85,-119.54"/>
<polygon fill="black" stroke="black" points="427.35,-119.62 423.85,-109.62 420.35,-119.62 427.35,-119.62"/>
</g>
</g>
</svg>
